<svg id="Capa_1" enable-background="new 0 0 512 512" height="512" viewBox="0 0 512 512" width="512" xmlns="http://www.w3.org/2000/svg"><g><g><g><path d="m0 0v390h512v-390z" fill="#57d9ad"/></g></g><path d="m256 0h256v390h-256z" fill="#26bfa6"/><g><g><path d="m482 111v249h-452v-249l82-81h288z" fill="#f9f5f3"/></g></g><path d="m482 111v249h-226v-330h144z" fill="#f0dbd8"/><g><path d="m136 330c-24.814 0-45-20.186-45-45s20.186-45 45-45 45 20.186 45 45-20.186 45-45 45z" fill="#f25555"/></g><g><path d="m91 180h180v30h-180z" fill="#f0dbd8"/></g><g><path d="m91 120h330v30h-330z" fill="#f0dbd8"/></g><g><path d="m151 60h210v30h-210z" fill="#f0dbd8"/></g><g fill="#d9c3c3"><path d="m256 180h15v30h-15z"/><path d="m256 60h105v30h-105z"/><path d="m256 120h165v30h-165z"/></g><g><path d="m136 270c-8.276 0-15 6.724-15 15s6.724 15 15 15 15-6.724 15-15-6.724-15-15-15z" fill="#d93752"/></g><path d="m346 382.954h-60v129.046l60-31.992 60 31.992v-129.046z" fill="#f25555"/><path d="m406 382.954h-60v97.054l60 31.992z" fill="#d93752"/><path d="m446.547 282.334-32.124-17.051-6.27-35.815-36.02 5.097-26.133-25.297-26.133 25.297-36.02-5.097-6.27 35.815-32.124 17.051 15.967 32.666-15.967 32.666 32.124 17.051 6.27 35.815 36.02-5.097 26.133 25.297 26.133-25.297 36.02 5.097 6.27-35.815 32.124-17.051-15.967-32.666z" fill="#ffea80"/><path d="m408.153 400.532 6.27-35.815 32.124-17.051-15.967-32.666 15.967-32.666-32.124-17.051-6.27-35.815-36.02 5.097-26.133-25.297v211.464l26.133-25.297z" fill="#fc6"/></g></svg>